<?xml version="1.0" encoding="UTF-8"?>
<!-- Generated by Pixelmator Pro 2.4.5 -->
<svg width="28" height="28" viewBox="0 0 28 28" xmlns="http://www.w3.org/2000/svg" xmlns:xlink="http://www.w3.org/1999/xlink">
    <path id="path1" fill="#353535" fill-rule="evenodd" stroke="none" d="M 28 14 C 28 21.732 21.732 28 14 28 C 6.26801 28 0 21.732 0 14 C 0 6.268009 6.26801 0 14 0 C 21.732 0 28 6.268009 28 14 Z M 18.6667 7.777781 C 18.6667 10.355099 16.5774 12.4444 14.0001 12.4444 C 11.4227 12.4444 9.33339 10.355099 9.33339 7.777781 C 9.33339 5.200451 11.4227 3.111111 14.0001 3.111111 C 16.5774 3.111111 18.6667 5.200451 18.6667 7.777781 Z M 19.4998 16.278099 C 20.958401 17.7367 21.7778 19.715 21.7778 21.7778 L 14 21.7778 L 6.22225 21.7778 C 6.22225 19.715 7.0417 17.7367 8.50031 16.278099 C 9.95893 14.8194 11.9372 14 14 14 C 16.062799 14 18.0411 14.8194 19.4998 16.278099 Z"/>
</svg>
